<svg width="20" height="22" viewBox="0 0 20 22" fill="none" xmlns="http://www.w3.org/2000/svg">
<path fill-rule="evenodd" clip-rule="evenodd" d="M14.1417 0.357422C13.0607 0.357422 12.024 0.7853 11.2597 1.54693L6.45279 6.33665C4.24508 8.53647 2.67888 11.2928 1.92164 14.3109L1.68938 15.2367C1.44848 16.1968 2.3213 17.0665 3.28489 16.8265L4.21396 16.5951C7.24291 15.8405 10.0091 14.2799 12.2168 12.0801L17.0237 7.29038C17.7881 6.52875 18.2175 5.49576 18.2175 4.41865C18.2175 2.1757 16.3927 0.357422 14.1417 0.357422ZM12.7603 5.79514C13.4961 6.52832 14.3491 6.84064 14.9818 6.73091L15.722 5.99334C16.1412 5.57571 16.3766 5.00928 16.3766 4.41865C16.3766 3.18874 15.376 2.19171 14.1417 2.19171C13.5489 2.19171 12.9805 2.42633 12.5614 2.84397L11.8211 3.58153C11.711 4.212 12.0245 5.06196 12.7603 5.79514Z" fill="#363853"/>
<path fill-rule="evenodd" clip-rule="evenodd" d="M0.422478 20.8403C0.422478 20.3338 0.834568 19.9231 1.34291 19.9231H18.5243C19.0326 19.9231 19.4447 20.3338 19.4447 20.8403C19.4447 21.3468 19.0326 21.7574 18.5243 21.7574H1.34291C0.834568 21.7574 0.422478 21.3468 0.422478 20.8403Z" fill="#363853"/>
</svg>
