<svg width="21" height="18" viewBox="0 0 21 18" fill="none" xmlns="http://www.w3.org/2000/svg">
<path fill-rule="evenodd" clip-rule="evenodd" d="M9.75 2.37808C7.63095 0.922277 4.68953 0.259328 2.49433 0.0112717C1.39642 -0.112791 0.5 0.804023 0.5 1.93518V13.2C0.5 14.3311 1.39642 15.2483 2.49433 15.3723C4.68953 15.6204 7.63095 16.2833 9.75 17.7391V2.37808ZM11.25 17.7391C13.369 16.2833 16.3105 15.6204 18.5057 15.3723C19.6036 15.2483 20.5 14.3311 20.5 13.2V1.93518C20.5 0.804023 19.6036 -0.112791 18.5057 0.0112717C16.3105 0.259328 13.369 0.922278 11.25 2.37808V17.7391ZM2.75882 5.13996C2.82221 4.73063 3.20543 4.45019 3.61477 4.51358C4.91754 4.71534 6.38469 5.05257 7.77049 5.58846C8.15682 5.73786 8.3489 6.17215 8.1995 6.55849C8.05011 6.94482 7.61581 7.1369 7.22948 6.9875C5.97083 6.50078 4.61398 6.18621 3.3852 5.99591C2.97587 5.93252 2.69543 5.5493 2.75882 5.13996ZM3.61477 8.51358C3.20543 8.45019 2.82221 8.73063 2.75882 9.13996C2.69543 9.5493 2.97587 9.93252 3.3852 9.99591C4.00444 10.0918 4.65812 10.2196 5.31651 10.3857C5.71814 10.487 6.12587 10.2436 6.2272 9.84194C6.32853 9.44031 6.08509 9.03258 5.68346 8.93125C4.97445 8.75237 4.2745 8.61575 3.61477 8.51358Z" fill="#252525"/>
</svg>
