<svg width="172" height="49" viewBox="0 0 172 49" fill="none" xmlns="http://www.w3.org/2000/svg">
<path d="M14.6472 11.8902C12.1703 11.8902 10.1844 12.3182 8.6297 13.1932V11.6699H0V48.0582H8.6297V37.3545C10.1687 38.2294 12.1829 38.6731 14.6472 38.6731C18.213 38.6731 21.2501 37.323 23.6735 34.6636C26.0874 32.0136 27.3117 28.8475 27.3117 25.2597C27.3117 21.6718 26.0874 18.5057 23.6672 15.8494C21.2312 13.2215 18.1973 11.8902 14.6472 11.8902ZM10.1026 21.5774L10.1278 21.5522C11.0814 20.5608 12.1987 20.0793 13.5457 20.0793C14.8927 20.0793 15.9627 20.5514 16.9762 21.5648C17.9455 22.5342 18.4176 23.7427 18.4176 25.2597C18.4176 26.7766 17.9455 27.9852 16.9762 28.9545C15.9627 29.9679 14.8738 30.44 13.5457 30.44C12.2175 30.44 11.0814 29.9585 10.1278 28.9671L10.1026 28.9419C9.11123 27.9883 8.6297 26.7829 8.6297 25.2597C8.6297 23.7364 9.11123 22.531 10.1026 21.5774Z" fill="#FFFDEB"/>
<path d="M37.4904 5.01562H28.8607V38.628H37.4904V5.01562Z" fill="#FFFDEB"/>
<path d="M57.7203 13.1429C56.1813 12.2806 54.1765 11.8463 51.7248 11.8463C48.0961 11.9407 45.0401 13.3034 42.6419 15.8936C40.2532 18.4712 39.0415 21.6216 39.0415 25.2598C39.0415 28.898 40.2658 31.9697 42.6797 34.6196C45.1031 37.279 48.1527 38.6292 51.75 38.6292C54.186 38.6292 56.1845 38.1949 57.7235 37.3325V38.6292H66.3972V11.626H57.7235V13.1429H57.7203ZM56.2726 28.9609C55.2749 29.9554 54.1545 30.4401 52.8484 30.4401C51.5423 30.4401 50.4187 29.9554 49.4305 28.9672C48.4517 27.9507 47.9765 26.739 47.9765 25.2598C47.9765 23.7806 48.4486 22.5343 49.4179 21.5649C50.4313 20.5515 51.5203 20.0794 52.8484 20.0794C54.1765 20.0794 55.2655 20.5515 56.2789 21.5649C57.2482 22.5343 57.7203 23.7428 57.7203 25.2598C57.7203 26.7767 57.2482 27.9444 56.2726 28.9609Z" fill="#FFFDEB"/>
<path d="M81.9502 25.3385L76.644 11.626H67.4384L77.3647 37.2444L73.1632 48.0583H82.416L96.4967 11.626H87.2942L81.9502 25.3385Z" fill="#FFFDEB"/>
<path d="M113.046 11.6329H113.024C110.96 11.4441 109.222 11.592 107.847 12.0861C107.23 12.3222 106.689 12.5614 106.217 12.8163V11.6298H97.587V38.633H106.217V22.664C106.217 22.088 106.365 21.49 106.654 20.9078C106.922 20.3413 107.325 19.8944 107.888 19.5451C108.439 19.202 109.248 19.0289 110.296 19.0289C111.164 19.0289 111.831 19.1926 112.395 19.5451C112.949 19.8912 113.418 20.3854 113.745 20.9707C114.041 21.4963 114.195 22.0817 114.195 22.6671V38.6361H122.825V22.8874C122.825 19.4318 121.947 16.8258 120.15 14.9344C118.447 13.0901 116.055 11.9791 113.04 11.6392L113.046 11.6329Z" fill="#FFFDEB"/>
<path d="M129.417 0C128.017 0 126.843 0.462643 125.949 1.3596C124.992 2.25971 124.507 3.33606 124.507 4.55719C124.507 5.77831 124.992 6.85466 125.93 7.73589C126.846 8.65173 128.017 9.11437 129.417 9.11437C130.818 9.11437 132.036 8.65173 132.929 7.75477C133.858 6.88299 134.327 5.80664 134.327 4.55719C134.327 3.30774 133.855 2.23139 132.948 1.37849C132.032 0.462643 130.846 0 129.417 0Z" fill="#FFFDEB"/>
<path d="M133.758 11.626H125.128V38.6292H133.758V11.626Z" fill="#FFFDEB"/>
<path d="M150.561 22.5501L144.566 20.4289C144.512 20.3943 144.449 20.3124 144.459 20.0764C144.487 19.919 144.528 19.8529 144.528 19.8435L144.641 19.8152C144.66 19.8152 144.685 19.8152 144.711 19.8152H155.304V11.582H143.697C141.353 11.582 139.31 12.4129 137.601 14.0715C135.961 15.7616 135.13 17.7317 135.13 19.9285V19.9725C135.13 21.6909 135.599 23.2331 136.525 24.5549C137.422 25.9397 138.718 26.9909 140.386 27.677L146.287 29.7919C146.354 29.8265 146.423 29.8895 146.413 30.1349C146.366 30.3836 146.275 30.4056 146.199 30.4245L146.136 30.4402H135.571V38.6293H147.178C149.523 38.6293 151.565 37.7984 153.274 36.1399C154.914 34.4529 155.745 32.4796 155.745 30.2829V30.2388C155.745 28.5393 155.288 27.0412 154.354 25.6627C153.473 24.3377 152.198 23.2929 150.565 22.5501H150.561Z" fill="#FFFDEB"/>
<path d="M171.931 19.8139V11.5807H167.393V5.01562H158.719V11.5807H156.956V19.8139H158.719V28.3869C158.719 31.1817 159.748 33.6019 161.762 35.5689C163.745 37.5989 166.241 38.628 169.18 38.628H171.931V30.1746H169.445C168.878 30.1746 168.409 29.9983 168.013 29.6332L167.987 29.6112C167.575 29.2587 167.393 28.8118 167.393 28.1698V19.817H171.931V19.8139Z" fill="#FFFDEB"/>
<path d="M68.6482 47.9795H13.1267V43.1455H70.5349L68.6482 47.9795ZM71.1677 41.5234V41.416H71.2097L71.1677 41.5234Z" fill="#FFFDEB"/>
<path d="M172.001 47.9785H87.1324L89.0543 43.1455H172.001V47.9785Z" fill="#FFFDEB"/>
</svg>
